<?xml version="1.0" encoding="UTF-8" standalone="no"?>
<svg
   xmlns:dc="http://purl.org/dc/elements/1.1/"
   xmlns:cc="http://creativecommons.org/ns#"
   xmlns:rdf="http://www.w3.org/1999/02/22-rdf-syntax-ns#"
   xmlns:svg="http://www.w3.org/2000/svg"
   xmlns="http://www.w3.org/2000/svg"
   xmlns:sodipodi="http://sodipodi.sourceforge.net/DTD/sodipodi-0.dtd"
   xmlns:inkscape="http://www.inkscape.org/namespaces/inkscape"
   inkscape:version="1.0 (1.0+r73+1)"
   id="svg8"
   version="1.1"
   viewBox="0 0 210 297"
   height="297mm"
   sodipodi:docname="path.svg"
   width="210mm">
  <defs
     id="defs2" />
  <sodipodi:namedview
     inkscape:window-maximized="1"
     inkscape:window-y="22"
     inkscape:window-x="1920"
     inkscape:window-height="913"
     inkscape:window-width="1918"
     showgrid="false"
     inkscape:document-rotation="0"
     inkscape:current-layer="layer1"
     inkscape:document-units="mm"
     inkscape:cy="565.27875"
     inkscape:cx="172.55861"
     inkscape:zoom="0.7"
     inkscape:pageshadow="2"
     inkscape:pageopacity="0.0"
     borderopacity="1.0"
     bordercolor="#666666"
     pagecolor="#ffffff"
     id="base" />
  <metadata
     id="metadata5">
    <rdf:RDF>
      <cc:Work
         rdf:about="">
        <dc:format>image/svg+xml</dc:format>
        <dc:type
           rdf:resource="http://purl.org/dc/dcmitype/StillImage" />
      </cc:Work>
    </rdf:RDF>
  </metadata>
  <g
     id="layer1"
     inkscape:groupmode="layer"
     inkscape:label="Layer 1">
    <path
       id="path12"
       d="M 131.331 259.524 C 131.173 258.451 130.899 257.41 130.542 256.391 C 130.189 255.38 129.755 254.391 129.275 253.415 C 128.802 252.453 128.284 251.503 127.753 250.557 C 127.226 249.617 126.687 248.679 126.167 247.736 C 125.643 246.785 125.14 245.829 124.69 244.857 C 124.232 243.87 123.83 242.868 123.517 241.842 C 123.204 240.814 122.98 239.761 122.881 238.673 C 122.786 237.632 122.806 236.558 122.97 235.445 C 123.119 234.438 123.386 233.399 123.794 232.32 C 124.149 231.381 124.612 230.411 125.197 229.408 C 125.703 228.539 126.301 227.645 127 226.723 C 127.612 225.917 128.301 225.09 129.073 224.239 C 129.758 223.485 130.51 222.712 131.331 221.921 C 132.212 221.172 133.186 220.655 134.218 220.281 C 135.252 219.907 136.344 219.676 137.458 219.502 C 138.55 219.332 139.665 219.216 140.767 219.071 C 141.883 218.925 142.987 218.75 144.045 218.461 C 145.121 218.167 146.149 217.756 147.093 217.136 C 147.965 216.564 148.766 215.814 149.466 214.817 C 150.037 214.004 150.541 213.026 150.963 211.845 C 151.299 210.905 151.583 209.836 151.807 208.619 C 151.992 207.619 152.135 206.52 152.234 205.309 C 152.319 204.28 152.37 203.171 152.387 201.975 C 152.316 200.88 152.228 199.79 152.127 198.704 C 152.026 197.613 151.912 196.525 151.791 195.439 C 151.67 194.35 151.541 193.264 151.411 192.178 C 151.281 191.092 151.149 190.006 151.02 188.92 C 150.892 187.834 150.767 186.747 150.652 185.658 C 150.537 184.572 150.43 183.483 150.338 182.391 C 150.247 181.303 150.17 180.212 150.112 179.116 C 150.055 178.028 150.017 176.935 150.004 175.836 C 149.99 174.748 150.001 173.655 150.041 172.553 C 150.079 171.469 150.146 170.378 150.246 169.278 C 150.344 168.201 150.473 167.116 150.638 166.021 C 150.798 164.954 150.993 163.878 151.226 162.792 C 151.452 161.74 151.714 160.678 152.015 159.606 C 152.306 158.572 152.633 157.53 153 156.476 C 153.553 155.46 154.16 154.488 154.809 153.551 C 155.463 152.606 156.16 151.696 156.887 150.811 C 157.614 149.925 158.371 149.064 159.146 148.217 C 159.919 147.372 160.71 146.541 161.505 145.714 C 162.301 144.888 163.101 144.066 163.894 143.238 C 164.687 142.409 165.474 141.573 166.24 140.722 C 167.007 139.869 167.755 139 168.47 138.105 C 169.184 137.21 169.866 136.288 170.503 135.331 C 171.133 134.383 171.719 133.399 172.249 132.369 C 172.765 131.365 173.228 130.318 173.626 129.219 C 174.007 128.169 174.328 127.071 174.58 125.917 C 174.817 124.835 174.994 123.704 175.101 122.518 C 175.201 121.422 175.242 120.278 175.219 119.082 C 175.197 117.984 175.121 116.842 174.985 115.651 C 174.703 114.454 174.39 113.375 174.05 112.407 C 173.631 111.215 173.172 110.192 172.68 109.325 C 172.036 108.189 171.336 107.319 170.598 106.686 C 169.635 105.86 168.608 105.436 167.558 105.347 C 166.482 105.256 165.381 105.517 164.3 106.057 C 163.367 106.523 162.449 107.196 161.574 108.03 C 160.8 108.767 160.06 109.629 159.372 110.585 C 158.734 111.472 158.141 112.439 157.608 113.461 C 157.094 114.447 156.636 115.484 156.248 116.55 C 155.862 117.61 155.546 118.698 155.312 119.791 C 155.312 119.791 155.217 121.004 155.071 122.853 C 155 123.747 154.918 124.789 154.829 125.915 C 154.752 126.887 154.67 127.922 154.587 128.976 C 154.507 129.991 154.425 131.024 154.345 132.039 C 154.262 133.094 154.18 134.129 154.103 135.101 C 154.015 136.227 153.932 137.269 153.862 138.163 C 153.716 140.011 153.62 141.224 153.62 141.224 C 152.622 141.393 151.584 141.851 150.54 142.35 C 149.533 142.831 148.52 143.349 147.534 143.682 C 146.414 144.06 145.327 144.199 144.319 143.773 C 143.507 143.429 142.745 142.718 142.058 141.468 C 141.625 140.678 141.221 139.675 140.853 138.413 C 140.853 138.413 140.859 137.092 140.868 134.919 C 140.873 133.92 140.878 132.74 140.884 131.425 C 140.888 130.343 140.893 129.17 140.899 127.931 C 140.904 126.814 140.909 125.643 140.914 124.437 C 140.919 123.299 140.924 122.129 140.929 120.943 C 140.934 119.788 140.939 118.618 140.944 117.448 C 140.949 116.278 140.954 115.109 140.959 113.954 C 140.965 112.768 140.97 111.598 140.975 110.459 C 140.98 109.253 140.985 108.082 140.99 106.965 C 140.995 105.726 141 104.553 141.005 103.471 C 141.011 102.156 141.016 100.976 141.02 99.9765 C 141.029 97.8033 141.035 96.4823 141.035 96.4823 C 141.148 95.3181 141.239 94.1792 141.309 93.0656 C 141.383 91.8969 141.434 90.756 141.463 89.6431 C 141.493 88.4699 141.499 87.3277 141.482 86.2165 C 141.463 85.0403 141.419 83.8988 141.349 82.7922 C 141.275 81.6152 141.173 80.4775 141.044 79.3792 C 140.906 78.2042 140.737 77.0743 140.539 75.9896 C 140.326 74.8218 140.08 73.7063 139.803 72.6433 C 139.502 71.4903 139.164 70.399 138.793 69.3696 C 138.387 68.244 137.94 67.1923 137.457 66.2147 C 136.925 65.1389 136.349 64.1528 135.734 63.2566 C 135.054 62.2667 134.326 61.3864 133.557 60.6161 C 132.714 59.7719 131.821 59.0597 130.888 58.4799 C 129.893 57.8614 128.851 57.3935 127.774 57.0767 C 126.68 56.7551 125.55 56.5892 124.394 56.5794 C 123.283 56.5699 122.149 56.7049 121.001 56.9847 C 119.936 57.2442 118.859 57.6284 117.779 58.1376 C 116.792 58.6033 115.801 59.1736 114.814 59.8487 C 113.911 60.4658 113.011 61.1703 112.119 61.9627 C 111.176 61.3029 110.248 60.645 109.334 59.9914 C 108.396 59.3214 107.474 58.6558 106.564 57.9971 C 105.63 57.3206 104.71 56.6513 103.802 55.9921 C 102.867 55.313 101.946 54.6445 101.037 53.9895 C 100.098 53.3132 99.1728 52.6514 98.2586 52.0073 C 97.311 51.3396 96.3756 50.691 95.451 50.0649 C 94.4893 49.4138 93.5391 48.7872 92.5985 48.1891 C 91.6167 47.5648 90.6454 46.9716 89.6824 46.4142 C 88.674 45.8305 87.6747 45.2859 86.6821 44.7859 C 85.6417 44.2618 84.6086 43.7866 83.58 43.3665 C 82.5035 42.9267 81.4319 42.5473 80.3619 42.2351 C 79.2519 41.9112 78.1436 41.6598 77.0334 41.4886 C 75.9031 41.3144 74.7709 41.2233 73.6329 41.2237 C 72.5069 41.224 71.3751 41.314 70.234 41.5015 C 69.1403 41.6812 68.0379 41.9505 66.9237 42.3165 C 65.8821 42.6586 64.83 43.0853 63.7649 43.6021 C 62.5744 44.0771 61.5098 44.5295 60.5637 44.9613 C 59.3372 45.5209 58.3099 46.0458 57.4656 46.5399 C 56.1176 47.3288 55.2363 48.0391 54.7564 48.6869 C 53.9238 49.811 54.2997 50.7471 55.543 51.5795 C 56.3008 52.0868 57.3808 52.5557 58.7058 53.0051 C 59.6927 53.3398 60.8155 53.6637 62.0422 53.9848 C 63.0979 54.2611 64.2307 54.5352 65.4201 54.8123 C 66.5081 55.0657 67.6435 55.3215 68.8108 55.5836 C 69.9175 55.8321 71.0528 56.0863 72.2036 56.3493 C 73.3217 56.6049 74.4544 56.8689 75.5894 57.1444 C 76.7149 57.4175 77.8427 57.7018 78.9609 58.0004 C 80.0898 58.3017 81.209 58.6176 82.3061 58.9508 C 83.435 59.2937 84.5407 59.6551 85.6098 60.0383 C 86.7325 60.4407 87.815 60.8671 88.8417 61.3214 C 89.9466 61.8102 90.987 62.3313 91.9436 62.8894 C 93.0026 63.5072 93.9589 64.1703 94.7864 64.8851 C 95.7169 65.689 96.4847 66.5583 97.0525 67.5022 C 97.5401 68.5964 97.9471 69.6502 98.2792 70.6663 C 98.6522 71.8076 98.9306 72.9014 99.1225 73.9515 C 99.3378 75.1291 99.4442 76.2517 99.4533 77.3251 C 99.4632 78.5075 99.3549 79.6301 99.1434 80.7002 C 98.9192 81.8351 98.5789 82.9111 98.1407 83.9368 C 97.6958 84.9784 97.1498 85.9683 96.5218 86.9155 C 95.9035 87.8482 95.2056 88.7396 94.4463 89.5986 C 93.7074 90.4344 92.9104 91.2394 92.0718 92.0219 C 91.254 92.785 90.3966 93.5266 89.5152 94.2542 C 88.6484 94.9697 87.7583 95.6718 86.8596 96.3675 C 85.9653 97.0598 85.0624 97.7458 84.1655 98.4327 C 83.2616 99.1248 82.3638 99.8177 81.4869 100.519 C 80.5924 101.234 79.7196 101.957 78.8841 102.696 C 78.0219 103.459 77.1995 104.239 76.4341 105.044 C 75.6399 105.88 74.9072 106.743 74.2552 107.643 C 73.5836 108.571 72.9976 109.537 72.5183 110.552 C 72.0391 111.568 71.6666 112.633 71.4219 113.757 C 71.3534 114.937 71.3209 116.064 71.3227 117.141 C 71.3247 118.328 71.3683 119.454 71.4512 120.523 C 71.5434 121.711 71.684 122.829 71.8699 123.88 C 72.0778 125.057 72.3424 126.151 72.659 127.169 C 73.0132 128.308 73.4325 129.351 73.9105 130.31 C 74.4373 131.366 75.0355 132.318 75.6964 133.178 C 76.4017 134.097 77.1785 134.911 78.0164 135.636 C 78.874 136.378 79.7956 137.027 80.7702 137.598 C 81.7346 138.164 82.7508 138.655 83.808 139.085 C 84.8387 139.505 85.9084 139.868 87.007 140.188 C 88.0764 140.501 89.1733 140.773 90.2884 141.018 C 91.3809 141.259 92.4908 141.474 93.6096 141.676 C 94.7155 141.876 95.8301 142.064 96.9449 142.251 C 98.0599 142.438 99.1752 142.624 100.282 142.823 C 101.401 143.023 102.51 143.236 103.603 143.473 C 104.719 143.715 105.817 143.983 106.888 144.29 C 108.083 144.456 109.184 144.448 110.199 144.283 C 111.338 144.099 112.37 143.717 113.308 143.164 C 114.24 142.615 115.079 141.896 115.838 141.032 C 116.533 140.241 117.162 139.328 117.735 138.311 C 118.253 137.391 118.725 136.387 119.158 135.311 C 119.556 134.323 119.921 133.275 120.259 132.177 C 120.576 131.15 120.869 130.079 121.143 128.974 C 121.404 127.922 121.648 126.84 121.879 125.733 C 122.101 124.666 122.312 123.576 122.514 122.471 C 122.711 121.393 122.9 120.299 123.085 119.197 C 123.266 118.11 123.444 117.015 123.62 115.917 C 123.795 114.824 123.97 113.728 124.146 112.636 C 124.323 111.538 124.502 110.443 124.686 109.357 C 124.873 108.255 125.066 107.162 125.268 106.086 C 125.475 104.98 125.691 103.892 125.92 102.827 C 126.159 101.72 126.411 100.639 126.682 99.5917 C 126.967 98.4876 127.273 97.4207 127.604 96.4002 C 127.959 95.3053 128.343 94.2636 128.762 93.2863 C 129.71 92.024 130.605 91.5159 131.442 91.5978 C 132.328 91.6846 133.148 92.4341 133.892 93.6508 C 134.388 94.4619 134.85 95.4808 135.276 96.6494 C 135.627 97.6117 135.953 98.6756 136.254 99.8088 C 136.525 100.834 136.776 101.916 137.003 103.03 C 137.22 104.092 137.417 105.184 137.592 106.285 C 137.766 107.374 137.919 108.472 138.049 109.559 C 138.184 110.675 138.295 111.779 138.382 112.85 C 138.382 112.85 138.368 114.215 138.346 116.342 C 138.336 117.355 138.324 118.541 138.31 119.835 C 138.299 120.935 138.287 122.112 138.275 123.327 C 138.263 124.469 138.251 125.645 138.239 126.82 C 138.227 127.995 138.215 129.17 138.203 130.311 C 138.191 131.526 138.178 132.703 138.167 133.803 C 138.154 135.097 138.142 136.283 138.131 137.296 C 138.11 139.423 138.096 140.789 138.096 140.789 C 138.723 141.852 139.323 142.782 139.899 143.592 C 140.644 144.64 141.349 145.487 142.019 146.162 C 142.982 147.133 143.874 147.747 144.712 148.092 C 145.889 148.577 146.959 148.53 147.97 148.191 C 148.976 147.855 149.924 147.23 150.861 146.554 C 151.771 145.899 152.67 145.197 153.604 144.663 C 154.603 144.092 155.641 143.714 156.771 143.794 C 156.771 143.794 156.901 142.506 157.099 140.543 C 157.194 139.594 157.306 138.488 157.426 137.292 C 157.53 136.26 157.64 135.162 157.753 134.042 C 157.861 132.964 157.972 131.867 158.08 130.79 C 158.193 129.67 158.303 128.572 158.407 127.54 C 158.528 126.344 158.639 125.237 158.735 124.288 C 158.932 122.325 159.062 121.037 159.062 121.037 C 159.392 119.999 159.727 118.972 160.084 117.998 C 160.473 116.937 160.887 115.938 161.349 115.053 C 161.897 114.005 162.512 113.118 163.23 112.478 C 164.051 111.745 165.008 111.337 166.155 111.383 C 167.041 111.419 168.041 111.726 169.179 112.364 C 169.985 113.293 170.619 114.25 171.099 115.229 C 171.622 116.297 171.963 117.393 172.142 118.512 C 172.324 119.639 172.342 120.79 172.22 121.958 C 172.105 123.07 171.862 124.198 171.514 125.338 C 171.188 126.404 170.769 127.48 170.274 128.563 C 169.807 129.582 169.273 130.607 168.686 131.634 C 168.125 132.614 167.515 133.595 166.869 134.577 C 166.244 135.526 165.584 136.475 164.9 137.421 C 164.23 138.348 163.538 139.273 162.832 140.193 C 162.131 141.106 161.418 142.015 160.703 142.917 C 159.982 143.825 159.258 144.726 158.542 145.618 C 157.811 146.529 157.088 147.43 156.384 148.319 C 155.652 149.243 154.94 150.154 154.262 151.049 C 153.541 151.999 152.856 152.932 152.224 153.843 C 151.532 154.839 150.902 155.809 150.353 156.75 C 149.902 157.778 149.502 158.796 149.15 159.803 C 148.78 160.86 148.462 161.906 148.19 162.942 C 147.907 164.02 147.674 165.088 147.486 166.146 C 147.291 167.239 147.143 168.322 147.037 169.397 C 146.927 170.497 146.861 171.589 146.83 172.673 C 146.799 173.774 146.804 174.867 146.839 175.954 C 146.874 177.052 146.94 178.144 147.028 179.23 C 147.117 180.323 147.228 181.411 147.355 182.496 C 147.482 183.584 147.624 184.669 147.773 185.753 C 147.923 186.837 148.08 187.919 148.237 189.002 C 148.394 190.085 148.55 191.167 148.699 192.252 C 148.847 193.336 148.987 194.421 149.112 195.51 C 149.236 196.595 149.344 197.683 149.428 198.776 C 149.513 199.863 149.574 200.955 149.604 202.053 C 149.746 203.325 149.781 204.479 149.721 205.528 C 149.648 206.816 149.432 207.946 149.099 208.942 C 148.7 210.131 148.133 211.129 147.438 211.978 C 146.694 212.887 145.803 213.625 144.816 214.243 C 143.851 214.847 142.793 215.335 141.691 215.757 C 140.617 216.167 139.5 216.514 138.384 216.84 C 137.255 217.17 136.126 217.48 135.044 217.815 C 133.887 218.173 132.783 218.56 131.786 219.03 C 130.678 219.554 129.702 220.181 128.934 220.989 C 128.137 221.807 127.403 222.602 126.728 223.373 C 125.971 224.239 125.288 225.076 124.674 225.887 C 123.973 226.811 123.362 227.702 122.832 228.561 C 122.219 229.556 121.714 230.509 121.307 231.424 C 120.83 232.497 120.487 233.517 120.257 234.493 C 119.991 235.621 119.876 236.69 119.883 237.711 C 119.89 238.835 120.044 239.901 120.303 240.923 C 120.571 241.981 120.953 242.992 121.401 243.975 C 121.851 244.957 122.367 245.911 122.906 246.851 C 123.446 247.793 124.007 248.721 124.546 249.654 C 125.092 250.601 125.614 251.551 126.064 252.524 C 126.521 253.512 126.904 254.523 127.162 255.574 C 127.414 256.602 127.548 257.669 127.515 258.793"
       style="fill:none;stroke:#000000;stroke-width:0.264583px;stroke-linecap:butt;stroke-linejoin:miter;stroke-opacity:1" />
  </g>
</svg>
